# xmcd
#
# Track frame offsets: 
#        150
#        17570
#        29105
#        46452
#        64637
#        80587
#        92020
#        102530
#        122180
#        140152
#        157497
#        177632
#        190957
#
# Disc length: 2978 seconds
#
# Revision: 1
# Processed by: cddbd v1.5.2PL0 Copyright (c) Steve Scherf et al.
# Submitted via: ExactAudioCopy v1.0b3
#
DISCID=c60ba00d
DTITLE=The Ford Blues Band - 1999
DYEAR=1999
DGENRE=Blues
TTITLE0=Lovin' Cup
TTITLE1=Look Whatcha Done
TTITLE2=Another Kind Of Love
TTITLE3=Hell And Purgatory
TTITLE4=I Have My Doubts
TTITLE5=Pick Up The Phone
TTITLE6=Zip It Up
TTITLE7=You've Got The Touch (For Lisa)
TTITLE8=Bring It Home To Jerome
TTITLE9=Big Band
TTITLE10=Somebody Help Me
TTITLE11=Watch Yourself
TTITLE12=Daydreamin'
EXTD=
EXTT0=
EXTT1=
EXTT2=
EXTT3=
EXTT4=
EXTT5=
EXTT6=
EXTT7=
EXTT8=
EXTT9=
EXTT10=
EXTT11=
EXTT12=
PLAYORDER=
